<?xml version="1.0" encoding="utf-8"?>
<!-- Generator: Adobe Illustrator 16.0.0, SVG Export Plug-In . SVG Version: 6.00 Build 0)  -->
<!DOCTYPE svg PUBLIC "-//W3C//DTD SVG 1.1//EN" "http://www.w3.org/Graphics/SVG/1.1/DTD/svg11.dtd">
<svg version="1.1" id="Layer_1" xmlns="http://www.w3.org/2000/svg" xmlns:xlink="http://www.w3.org/1999/xlink" x="0px" y="0px"
	 width="363px" height="85px" viewBox="0 0 363 85" enable-background="new 0 0 363 85" xml:space="preserve">
<path fill-rule="evenodd" clip-rule="evenodd" fill="#129EE6" d="M73.915-619.219l-0.307,0.885l-2.45-0.601l0.135-0.926
	c1.341-9.19-3.212-18.076-11.329-22.113c-8.055-4.008-17.844-2.323-24.358,4.191c-1.033,1.032-1.964,2.172-2.775,3.394
	c0.938,1.57,1.048,3.496,0.259,5.186c-0.275,0.59-0.646,1.119-1.102,1.576c-1.646,1.645-4.167,2.09-6.275,1.105
	c-2.775-1.294-3.979-4.604-2.684-7.379c0.271-0.586,0.642-1.115,1.099-1.572c0.986-0.986,2.302-1.56,3.684-1.623
	c1.381-2.179,2.65-3.768,2.662-3.781c0.267-0.289,0.485-0.516,0.708-0.738c1.483-1.483,3.128-2.791,4.898-3.895
	c-0.378-1.811-0.138-3.691,0.701-5.377c0.41-0.82,0.939-1.557,1.574-2.192c2.476-2.476,6.206-3.11,9.282-1.581
	c2.021,1.005,3.516,2.85,4.121,5.031c4.225,0.141,12.825,1.371,17.923,8.621C74.626-633.969,76.21-625.824,73.915-619.219z
	 M20.733-649.457c-4.265,4.264-6.499,10.107-6.13,16.031c0.651,10.49,9.436,19.025,20.137,19.705
	c0.251-0.444,0.562-0.856,0.919-1.214c0.919-0.92,2.14-1.489,3.438-1.604c1.476-0.128,2.915,0.327,4.053,1.281
	c1.136,0.953,1.832,2.291,1.961,3.769c0.143,1.637-0.445,3.245-1.609,4.41c-0.92,0.92-2.143,1.489-3.44,1.603
	c-2.094,0.183-4.056-0.803-5.16-2.546c-2.572-0.106-4.567-0.407-4.587-0.41c-2.43-0.561-4.709-1.411-6.832-2.542
	c-1.38,1.23-3.14,1.965-5.006,2.082c-2.182,0.136-4.289-0.57-5.931-1.985c-1.65-1.421-2.631-3.385-2.764-5.53
	c-0.139-2.248,0.697-4.463,2.295-6.086c-1.991-3.728-5.225-11.79-1.495-19.83c1.491-3.211,3.525-6.154,5.884-8.513
	c3.212-3.213,6.97-5.305,10.868-6.049l0.919-0.176l0.708,2.42l-0.871,0.346C25.313-653.189,22.838-651.562,20.733-649.457z
	 M19.877-599.654c7.303,5.767,17.283,6.273,24.835,1.263c1.227-0.812,2.308-1.684,3.211-2.588
	c6.369-6.369,7.882-16.439,3.782-24.708c-1.814,0.02-3.574-0.867-4.629-2.376c-1.551-2.214-1.293-5.206,0.613-7.112
	c0.24-0.239,0.49-0.451,0.743-0.627c1.213-0.85,2.687-1.176,4.147-0.918c1.462,0.258,2.734,1.068,3.583,2.282
	c1.204,1.722,1.331,3.914,0.375,5.741c1.081,2.066,1.788,3.803,1.928,4.153c0.737,2.406,1.142,4.805,1.225,7.21
	c1.754,0.577,3.263,1.727,4.306,3.296c2.16,3.258,1.765,7.585-0.938,10.289c-0.37,0.37-0.781,0.705-1.222,0.999
	c-1.918,1.272-4.203,1.651-6.388,1.084c-1.206,1.968-2.541,3.688-3.978,5.124c-3.621,3.622-7.811,5.669-12.452,6.085
	c-8.57,0.765-16.421-1.941-21-7.239l-0.604-0.698l1.717-1.849L19.877-599.654z"/>
<g>
	<g>
		<path fill="#121926" d="M114.23-605.301H86.398c0-12.375,0-24.805,0-37.181h27.833v6.799H93.356v8.552h20.131v6.533H93.356v8.393
			h20.875V-605.301z"/>
		<path fill="#121926" d="M138.985-605.301v-13.703c0-3.984-2.178-7.012-6.321-7.012c-3.984,0-6.693,3.347-6.693,7.33v13.385h-6.427
			v-26.239h5.79l0.425,3.559c2.656-2.603,5.312-3.93,8.605-3.93c6.161,0,11.101,4.621,11.101,12.854v13.756H138.985z"/>
		<path fill="#121926" d="M172.132-634.142l4.78,3.612l-2.921,3.718c2.019,2.284,2.762,4.886,2.762,7.755
			c0,3.239-1.222,7.807-5.524,9.772c4.355,2.178,5.418,5.312,5.418,8.657c0,7.225-5.524,11.686-13.12,11.686
			s-13.279-4.621-13.279-11.686h6.427c0,3.4,3.134,5.631,6.852,5.631s6.64-2.018,6.64-5.631c0-3.611-3.399-5.258-6.64-5.258
			c-8.18,0-13.279-4.992-13.279-13.172c0-8.181,5.949-13.28,13.279-13.28c2.071,0,4.196,0.266,6.002,1.487L172.132-634.142z
			 M156.675-619.057c0,4.567,3.081,7.276,6.852,7.276c3.718,0,6.799-2.763,6.799-7.276c0-4.516-3.081-7.384-6.799-7.384
			C159.756-626.44,156.675-623.625,156.675-619.057z"/>
		<path fill="#121926" d="M188.492-638.87c0,5.046-7.648,5.046-7.648,0S188.492-643.916,188.492-638.87z M181.428-631.593v26.292
			h6.48v-26.292H181.428z"/>
		<path fill="#121926" d="M213.564-605.301v-13.703c0-3.984-2.178-7.012-6.32-7.012c-3.984,0-6.693,3.347-6.693,7.33v13.385h-6.427
			v-26.239h5.79l0.424,3.559c2.656-2.603,5.312-3.93,8.605-3.93c6.162,0,11.102,4.621,11.102,12.854v13.756H213.564z"/>
		<path fill="#121926" d="M231.68-616.083c0.424,3.24,3.24,5.577,7.809,5.577c2.389,0,5.523-0.902,7.01-2.443l4.145,4.09
			c-2.764,2.869-7.277,4.25-11.262,4.25c-9.029,0-14.395-5.578-14.395-13.97c0-7.967,5.418-13.704,13.916-13.704
			c8.766,0,14.236,5.418,13.227,16.2H231.68z M245.914-621.447c-0.424-3.4-3.08-5.099-6.799-5.099c-3.506,0-6.373,1.699-7.33,5.099
			H245.914z"/>
	</g>
	<g>
		<path fill="#129EE6" d="M294.678-623.678c-0.107,9.614-6.002,19.227-19.068,19.227s-19.123-9.4-19.123-19.174
			c0-9.773,6.268-19.6,19.123-19.6C288.41-643.225,294.783-633.398,294.678-623.678z M263.393-623.519
			c0.158,6.109,3.451,12.642,12.217,12.642c8.764,0,12.057-6.587,12.162-12.695c0.107-6.268-3.398-13.279-12.162-13.279
			C266.844-636.851,263.232-629.787,263.393-623.519z"/>
		<path fill="#129EE6" d="M319.166-605.301v-13.703c0-3.984-2.178-7.012-6.32-7.012c-3.984,0-6.693,3.347-6.693,7.33v13.385h-6.428
			v-26.239h5.791l0.424,3.559c2.656-2.603,5.312-3.93,8.605-3.93c6.162,0,11.102,4.621,11.102,12.854v13.756H319.166z"/>
		<path fill="#129EE6" d="M337.281-616.083c0.424,3.24,3.24,5.577,7.809,5.577c2.389,0,5.523-0.902,7.01-2.443l4.145,4.09
			c-2.764,2.869-7.277,4.25-11.262,4.25c-9.029,0-14.395-5.578-14.395-13.97c0-7.967,5.418-13.704,13.916-13.704
			c8.766,0,14.236,5.418,13.227,16.2H337.281z M351.516-621.447c-0.424-3.4-3.08-5.099-6.799-5.099c-3.506,0-6.373,1.699-7.33,5.099
			H351.516z"/>
	</g>
</g>
<g>
	<path fill-rule="evenodd" clip-rule="evenodd" fill="#FFFFFF" d="M73.915,47.855l-0.307,0.885l-2.45-0.602l0.135-0.926
		c1.341-9.189-3.212-18.076-11.329-22.113c-8.055-4.008-17.844-2.322-24.358,4.191c-1.033,1.033-1.964,2.172-2.775,3.395
		c0.938,1.57,1.048,3.496,0.259,5.186c-0.275,0.59-0.646,1.119-1.102,1.576c-1.646,1.645-4.167,2.09-6.275,1.105
		c-2.775-1.295-3.979-4.604-2.684-7.379c0.271-0.586,0.642-1.115,1.099-1.572c0.986-0.986,2.302-1.561,3.684-1.623
		c1.381-2.18,2.65-3.768,2.662-3.781c0.267-0.289,0.485-0.516,0.708-0.738c1.483-1.484,3.128-2.791,4.898-3.895
		c-0.378-1.811-0.138-3.691,0.701-5.377c0.41-0.82,0.939-1.557,1.574-2.193c2.476-2.475,6.206-3.109,9.282-1.58
		c2.021,1.004,3.516,2.85,4.121,5.031c4.225,0.141,12.825,1.371,17.923,8.621C74.626,33.105,76.21,41.25,73.915,47.855z
		 M20.733,17.617c-4.265,4.264-6.499,10.107-6.13,16.031c0.651,10.49,9.436,19.025,20.137,19.705
		c0.251-0.445,0.562-0.857,0.919-1.215c0.919-0.92,2.14-1.488,3.438-1.604c1.476-0.127,2.915,0.328,4.053,1.281
		c1.136,0.953,1.832,2.291,1.961,3.77c0.143,1.637-0.445,3.244-1.609,4.41c-0.92,0.92-2.143,1.488-3.44,1.602
		c-2.094,0.184-4.056-0.803-5.16-2.545c-2.572-0.107-4.567-0.408-4.587-0.41c-2.43-0.561-4.709-1.412-6.832-2.543
		c-1.38,1.23-3.14,1.965-5.006,2.082c-2.182,0.137-4.289-0.57-5.931-1.984c-1.65-1.422-2.631-3.385-2.764-5.531
		c-0.139-2.248,0.697-4.463,2.295-6.086c-1.991-3.727-5.225-11.789-1.495-19.83c1.491-3.211,3.525-6.154,5.884-8.512
		c3.212-3.213,6.97-5.305,10.868-6.049l0.919-0.176l0.708,2.42l-0.871,0.346C25.313,13.885,22.838,15.512,20.733,17.617z
		 M19.877,67.42c7.303,5.766,17.283,6.273,24.835,1.262c1.227-0.812,2.308-1.684,3.211-2.588c6.369-6.369,7.882-16.439,3.782-24.707
		c-1.814,0.02-3.574-0.867-4.629-2.377c-1.551-2.213-1.293-5.205,0.613-7.111c0.24-0.24,0.49-0.451,0.743-0.627
		c1.213-0.85,2.687-1.176,4.147-0.918c1.462,0.258,2.734,1.068,3.583,2.281c1.204,1.723,1.331,3.914,0.375,5.742
		c1.081,2.066,1.788,3.803,1.928,4.152c0.737,2.406,1.142,4.805,1.225,7.211c1.754,0.576,3.263,1.727,4.306,3.295
		c2.16,3.258,1.765,7.586-0.938,10.289c-0.37,0.371-0.781,0.705-1.222,1c-1.918,1.271-4.203,1.65-6.388,1.084
		c-1.206,1.967-2.541,3.688-3.978,5.123c-3.621,3.623-7.811,5.67-12.452,6.086c-8.57,0.764-16.421-1.941-21-7.24l-0.604-0.697
		l1.717-1.85L19.877,67.42z"/>
	<g>
		<path fill="#FFFFFF" d="M114.23,61.773H86.398c0-12.375,0-24.805,0-37.182h27.833v6.799H93.356v8.553h20.131v6.533H93.356v8.393
			h20.875V61.773z"/>
		<path fill="#FFFFFF" d="M138.985,61.773V48.07c0-3.984-2.178-7.012-6.321-7.012c-3.984,0-6.693,3.346-6.693,7.33v13.385h-6.427
			V35.535h5.79l0.425,3.559c2.656-2.604,5.312-3.932,8.605-3.932c6.161,0,11.101,4.621,11.101,12.855v13.756H138.985z"/>
		<path fill="#FFFFFF" d="M172.132,32.932l4.78,3.611l-2.921,3.719c2.019,2.283,2.762,4.887,2.762,7.756
			c0,3.238-1.222,7.807-5.524,9.771c4.355,2.178,5.418,5.312,5.418,8.658c0,7.225-5.524,11.686-13.12,11.686
			s-13.279-4.621-13.279-11.686h6.427c0,3.4,3.134,5.631,6.852,5.631s6.64-2.018,6.64-5.631c0-3.611-3.399-5.258-6.64-5.258
			c-8.18,0-13.279-4.992-13.279-13.172c0-8.182,5.949-13.279,13.279-13.279c2.071,0,4.196,0.266,6.002,1.486L172.132,32.932z
			 M156.675,48.018c0,4.566,3.081,7.275,6.852,7.275c3.718,0,6.799-2.762,6.799-7.275c0-4.516-3.081-7.385-6.799-7.385
			C159.756,40.633,156.675,43.449,156.675,48.018z"/>
		<path fill="#FFFFFF" d="M188.492,28.205c0,5.045-7.648,5.045-7.648,0C180.844,23.158,188.492,23.158,188.492,28.205z
			 M181.428,35.48v26.293h6.48V35.48H181.428z"/>
		<path fill="#FFFFFF" d="M213.564,61.773V48.07c0-3.984-2.178-7.012-6.32-7.012c-3.984,0-6.693,3.346-6.693,7.33v13.385h-6.427
			V35.535h5.79l0.424,3.559c2.656-2.604,5.312-3.932,8.605-3.932c6.162,0,11.102,4.621,11.102,12.855v13.756H213.564z"/>
		<path fill="#FFFFFF" d="M231.68,50.99c0.424,3.24,3.24,5.578,7.809,5.578c2.389,0,5.523-0.902,7.01-2.443l4.145,4.09
			c-2.764,2.869-7.277,4.25-11.262,4.25c-9.029,0-14.395-5.578-14.395-13.971c0-7.967,5.418-13.703,13.916-13.703
			c8.766,0,14.236,5.418,13.227,16.199H231.68z M245.914,45.627c-0.424-3.4-3.08-5.1-6.799-5.1c-3.506,0-6.373,1.699-7.33,5.1
			H245.914z"/>
	</g>
	<path fill="#FFFFFF" d="M294.678,43.396c-0.107,9.613-6.002,19.227-19.068,19.227s-19.123-9.4-19.123-19.174
		s6.268-19.6,19.123-19.6C288.41,23.85,294.783,33.676,294.678,43.396z M263.393,43.555c0.158,6.109,3.451,12.643,12.217,12.643
		c8.764,0,12.057-6.588,12.162-12.695c0.107-6.268-3.398-13.279-12.162-13.279C266.844,30.223,263.232,37.287,263.393,43.555z"/>
	<path fill="#FFFFFF" d="M319.166,61.773V48.07c0-3.984-2.178-7.012-6.32-7.012c-3.984,0-6.693,3.346-6.693,7.33v13.385h-6.428
		V35.535h5.791l0.424,3.559c2.656-2.604,5.312-3.932,8.605-3.932c6.162,0,11.102,4.621,11.102,12.855v13.756H319.166z"/>
	<path fill="#FFFFFF" d="M337.281,50.99c0.424,3.24,3.24,5.578,7.809,5.578c2.389,0,5.523-0.902,7.01-2.443l4.145,4.09
		c-2.764,2.869-7.277,4.25-11.262,4.25c-9.029,0-14.395-5.578-14.395-13.971c0-7.967,5.418-13.703,13.916-13.703
		c8.766,0,14.236,5.418,13.227,16.199H337.281z M351.516,45.627c-0.424-3.4-3.08-5.1-6.799-5.1c-3.506,0-6.373,1.699-7.33,5.1
		H351.516z"/>
</g>
<g>
	<path fill-rule="evenodd" clip-rule="evenodd" fill="#121926" d="M940.623-615.218l-0.307,0.885l-2.451-0.601l0.135-0.926
		c1.342-9.19-3.211-18.076-11.328-22.113c-8.055-4.008-17.844-2.323-24.358,4.191c-1.032,1.032-1.964,2.172-2.774,3.394
		c0.938,1.57,1.048,3.496,0.258,5.186c-0.275,0.59-0.646,1.119-1.102,1.576c-1.646,1.645-4.166,2.09-6.275,1.105
		c-2.774-1.294-3.979-4.604-2.684-7.379c0.271-0.586,0.643-1.115,1.1-1.572c0.986-0.986,2.302-1.56,3.684-1.623
		c1.381-2.179,2.65-3.768,2.662-3.781c0.266-0.289,0.484-0.516,0.707-0.738c1.483-1.483,3.129-2.791,4.898-3.895
		c-0.379-1.811-0.139-3.691,0.7-5.377c0.409-0.82,0.938-1.557,1.574-2.192c2.476-2.476,6.206-3.11,9.282-1.581
		c2.021,1.005,3.516,2.85,4.121,5.031c4.225,0.141,12.824,1.371,17.922,8.621C941.334-629.968,942.918-621.823,940.623-615.218z
		 M887.441-645.456c-4.266,4.264-6.499,10.107-6.13,16.031c0.651,10.49,9.437,19.025,20.138,19.705
		c0.25-0.444,0.561-0.856,0.919-1.214c0.919-0.92,2.14-1.489,3.438-1.604c1.476-0.128,2.915,0.327,4.054,1.281
		c1.135,0.953,1.832,2.291,1.961,3.769c0.143,1.637-0.445,3.245-1.609,4.41c-0.92,0.92-2.144,1.489-3.441,1.603
		c-2.094,0.183-4.055-0.803-5.16-2.546c-2.571-0.106-4.566-0.407-4.587-0.41c-2.431-0.561-4.709-1.411-6.832-2.542
		c-1.38,1.23-3.14,1.965-5.006,2.082c-2.183,0.136-4.288-0.57-5.931-1.985c-1.65-1.421-2.632-3.385-2.765-5.53
		c-0.14-2.248,0.696-4.463,2.295-6.086c-1.991-3.728-5.225-11.79-1.495-19.83c1.491-3.211,3.525-6.154,5.885-8.513
		c3.212-3.213,6.969-5.305,10.867-6.049l0.92-0.176l0.707,2.42l-0.871,0.346C892.021-649.188,889.546-647.562,887.441-645.456z
		 M886.586-595.653c7.303,5.767,17.283,6.273,24.834,1.263c1.227-0.812,2.309-1.684,3.211-2.588
		c6.369-6.369,7.883-16.439,3.783-24.708c-1.814,0.02-3.574-0.867-4.629-2.376c-1.551-2.214-1.293-5.206,0.613-7.112
		c0.24-0.239,0.49-0.451,0.742-0.627c1.213-0.85,2.688-1.176,4.148-0.918s2.734,1.068,3.582,2.282
		c1.205,1.722,1.332,3.914,0.375,5.741c1.082,2.066,1.789,3.803,1.928,4.153c0.738,2.406,1.143,4.805,1.225,7.21
		c1.754,0.577,3.264,1.727,4.307,3.296c2.16,3.258,1.764,7.585-0.939,10.289c-0.369,0.37-0.781,0.705-1.221,0.999
		c-1.918,1.272-4.203,1.651-6.389,1.084c-1.205,1.968-2.541,3.688-3.977,5.124c-3.621,3.622-7.811,5.669-12.452,6.085
		c-8.57,0.765-16.421-1.941-21-7.239l-0.604-0.698l1.717-1.849L886.586-595.653z"/>
	<g>
		<path fill="#121926" d="M980.938-601.3h-27.833c0-12.375,0-24.805,0-37.181h27.833v6.799h-20.874v8.552h20.131v6.533h-20.131
			v8.393h20.874V-601.3z"/>
		<path fill="#121926" d="M1005.693-601.3v-13.703c0-3.984-2.178-7.012-6.321-7.012c-3.983,0-6.692,3.347-6.692,7.33v13.385h-6.428
			v-26.239h5.79l0.425,3.559c2.656-2.603,5.312-3.93,8.605-3.93c6.16,0,11.101,4.621,11.101,12.854v13.756H1005.693z"/>
		<path fill="#121926" d="M1038.84-630.141l4.78,3.612l-2.921,3.718c2.018,2.284,2.762,4.886,2.762,7.755
			c0,3.239-1.222,7.807-5.524,9.772c4.355,2.178,5.418,5.312,5.418,8.657c0,7.225-5.524,11.686-13.12,11.686
			s-13.278-4.621-13.278-11.686h6.427c0,3.4,3.134,5.631,6.852,5.631c3.719,0,6.641-2.018,6.641-5.631
			c0-3.611-3.4-5.258-6.641-5.258c-8.18,0-13.278-4.992-13.278-13.172c0-8.181,5.948-13.28,13.278-13.28
			c2.072,0,4.197,0.266,6.002,1.487L1038.84-630.141z M1023.383-615.056c0,4.567,3.081,7.276,6.852,7.276
			c3.719,0,6.799-2.763,6.799-7.276c0-4.516-3.08-7.384-6.799-7.384C1026.464-622.439,1023.383-619.625,1023.383-615.056z"/>
		<path fill="#121926" d="M1055.2-634.869c0,5.046-7.647,5.046-7.647,0S1055.2-639.915,1055.2-634.869z M1048.137-627.592v26.292
			h6.479v-26.292H1048.137z"/>
		<path fill="#121926" d="M1080.272-601.3v-13.703c0-3.984-2.178-7.012-6.32-7.012c-3.984,0-6.693,3.347-6.693,7.33v13.385h-6.427
			v-26.239h5.79l0.424,3.559c2.656-2.603,5.312-3.93,8.605-3.93c6.162,0,11.102,4.621,11.102,12.854v13.756H1080.272z"/>
		<path fill="#121926" d="M1098.388-612.082c0.424,3.24,3.24,5.577,7.809,5.577c2.389,0,5.523-0.902,7.01-2.443l4.145,4.09
			c-2.764,2.869-7.277,4.25-11.262,4.25c-9.029,0-14.395-5.578-14.395-13.97c0-7.967,5.418-13.704,13.916-13.704
			c8.766,0,14.236,5.418,13.227,16.2H1098.388z M1112.622-617.446c-0.424-3.4-3.08-5.099-6.799-5.099
			c-3.506,0-6.373,1.699-7.33,5.099H1112.622z"/>
	</g>
	<path fill="#121926" d="M1161.386-619.677c-0.107,9.614-6.002,19.227-19.068,19.227s-19.123-9.4-19.123-19.174
		c0-9.773,6.268-19.6,19.123-19.6C1155.118-639.224,1161.491-629.397,1161.386-619.677z M1130.101-619.518
		c0.158,6.109,3.451,12.642,12.217,12.642c8.764,0,12.057-6.587,12.162-12.695c0.107-6.268-3.398-13.279-12.162-13.279
		C1133.552-632.85,1129.94-625.786,1130.101-619.518z"/>
	<path fill="#121926" d="M1185.874-601.3v-13.703c0-3.984-2.178-7.012-6.32-7.012c-3.984,0-6.693,3.347-6.693,7.33v13.385h-6.428
		v-26.239h5.791l0.424,3.559c2.656-2.603,5.312-3.93,8.605-3.93c6.162,0,11.102,4.621,11.102,12.854v13.756H1185.874z"/>
	<path fill="#121926" d="M1203.989-612.082c0.424,3.24,3.24,5.577,7.809,5.577c2.389,0,5.523-0.902,7.01-2.443l4.145,4.09
		c-2.764,2.869-7.277,4.25-11.262,4.25c-9.029,0-14.395-5.578-14.395-13.97c0-7.967,5.418-13.704,13.916-13.704
		c8.766,0,14.236,5.418,13.227,16.2H1203.989z M1218.224-617.446c-0.424-3.4-3.08-5.099-6.799-5.099
		c-3.506,0-6.373,1.699-7.33,5.099H1218.224z"/>
</g>
<g>
	<path fill-rule="evenodd" clip-rule="evenodd" fill="#129EE6" d="M940.623,47.782l-0.307,0.885l-2.451-0.601L938,47.141
		c1.342-9.19-3.211-18.076-11.328-22.113c-8.055-4.008-17.844-2.323-24.358,4.191c-1.032,1.032-1.964,2.172-2.774,3.394
		c0.938,1.57,1.048,3.496,0.258,5.186c-0.275,0.59-0.646,1.119-1.102,1.576c-1.646,1.645-4.166,2.09-6.275,1.105
		c-2.774-1.294-3.979-4.604-2.684-7.379c0.271-0.586,0.643-1.115,1.1-1.572c0.986-0.986,2.302-1.56,3.684-1.623
		c1.381-2.179,2.65-3.768,2.662-3.781c0.266-0.289,0.484-0.516,0.707-0.738c1.483-1.483,3.129-2.791,4.898-3.895
		c-0.379-1.811-0.139-3.691,0.7-5.377c0.409-0.82,0.938-1.557,1.574-2.192c2.476-2.476,6.206-3.11,9.282-1.581
		c2.021,1.005,3.516,2.85,4.121,5.031c4.225,0.141,12.824,1.371,17.922,8.621C941.334,33.032,942.918,41.177,940.623,47.782z
		 M887.441,17.544c-4.266,4.264-6.499,10.107-6.13,16.031c0.651,10.49,9.437,19.025,20.138,19.705
		c0.25-0.444,0.561-0.856,0.919-1.214c0.919-0.92,2.14-1.489,3.438-1.604c1.476-0.128,2.915,0.327,4.054,1.281
		c1.135,0.953,1.832,2.291,1.961,3.769c0.143,1.637-0.445,3.245-1.609,4.41c-0.92,0.92-2.144,1.489-3.441,1.603
		c-2.094,0.183-4.055-0.803-5.16-2.546c-2.571-0.106-4.566-0.407-4.587-0.41c-2.431-0.561-4.709-1.411-6.832-2.542
		c-1.38,1.23-3.14,1.965-5.006,2.082c-2.183,0.136-4.288-0.57-5.931-1.985c-1.65-1.421-2.632-3.385-2.765-5.53
		c-0.14-2.248,0.696-4.463,2.295-6.086c-1.991-3.728-5.225-11.79-1.495-19.83c1.491-3.211,3.525-6.154,5.885-8.513
		c3.212-3.213,6.969-5.305,10.867-6.049l0.92-0.176l0.707,2.42l-0.871,0.346C892.021,13.812,889.546,15.438,887.441,17.544z
		 M886.586,67.347c7.303,5.767,17.283,6.273,24.834,1.263c1.227-0.812,2.309-1.684,3.211-2.588
		c6.369-6.369,7.883-16.439,3.783-24.708c-1.814,0.02-3.574-0.867-4.629-2.376c-1.551-2.214-1.293-5.206,0.613-7.112
		c0.24-0.239,0.49-0.451,0.742-0.627c1.213-0.85,2.688-1.176,4.148-0.918s2.734,1.068,3.582,2.282
		c1.205,1.722,1.332,3.914,0.375,5.741c1.082,2.066,1.789,3.803,1.928,4.153c0.738,2.406,1.143,4.805,1.225,7.21
		c1.754,0.577,3.264,1.727,4.307,3.296c2.16,3.258,1.764,7.585-0.939,10.289c-0.369,0.37-0.781,0.705-1.221,0.999
		c-1.918,1.272-4.203,1.651-6.389,1.084c-1.205,1.968-2.541,3.688-3.977,5.124c-3.621,3.622-7.811,5.669-12.452,6.085
		c-8.57,0.765-16.421-1.941-21-7.239l-0.604-0.698l1.717-1.849L886.586,67.347z"/>
	<g>
		<path fill="#129EE6" d="M980.938,61.7h-27.833c0-12.375,0-24.805,0-37.181h27.833v6.799h-20.874v8.552h20.131v6.533h-20.131v8.393
			h20.874V61.7z"/>
		<path fill="#129EE6" d="M1005.693,61.7V47.997c0-3.983-2.178-7.012-6.321-7.012c-3.983,0-6.692,3.347-6.692,7.33V61.7h-6.428
			V35.461h5.79l0.425,3.559c2.656-2.602,5.312-3.93,8.605-3.93c6.16,0,11.101,4.621,11.101,12.854V61.7H1005.693z"/>
		<path fill="#129EE6" d="M1038.84,32.859l4.78,3.611l-2.921,3.719c2.018,2.283,2.762,4.886,2.762,7.755
			c0,3.239-1.222,7.807-5.524,9.772c4.355,2.178,5.418,5.312,5.418,8.657c0,7.225-5.524,11.686-13.12,11.686
			s-13.278-4.621-13.278-11.686h6.427c0,3.4,3.134,5.631,6.852,5.631c3.719,0,6.641-2.018,6.641-5.631
			c0-3.611-3.4-5.258-6.641-5.258c-8.18,0-13.278-4.992-13.278-13.172c0-8.181,5.948-13.28,13.278-13.28
			c2.072,0,4.197,0.266,6.002,1.488L1038.84,32.859z M1023.383,47.944c0,4.567,3.081,7.276,6.852,7.276
			c3.719,0,6.799-2.763,6.799-7.276c0-4.516-3.08-7.384-6.799-7.384C1026.464,40.561,1023.383,43.375,1023.383,47.944z"/>
		<path fill="#129EE6" d="M1055.2,28.131c0,5.047-7.647,5.047-7.647,0C1047.553,23.086,1055.2,23.086,1055.2,28.131z
			 M1048.137,35.408V61.7h6.479V35.408H1048.137z"/>
		<path fill="#129EE6" d="M1080.272,61.7V47.997c0-3.983-2.178-7.012-6.32-7.012c-3.984,0-6.693,3.347-6.693,7.33V61.7h-6.427
			V35.461h5.79l0.424,3.559c2.656-2.602,5.312-3.93,8.605-3.93c6.162,0,11.102,4.621,11.102,12.854V61.7H1080.272z"/>
		<path fill="#129EE6" d="M1098.388,50.918c0.424,3.24,3.24,5.577,7.809,5.577c2.389,0,5.523-0.902,7.01-2.443l4.145,4.09
			c-2.764,2.869-7.277,4.25-11.262,4.25c-9.029,0-14.395-5.578-14.395-13.97c0-7.967,5.418-13.704,13.916-13.704
			c8.766,0,14.236,5.418,13.227,16.2H1098.388z M1112.622,45.554c-0.424-3.399-3.08-5.099-6.799-5.099
			c-3.506,0-6.373,1.699-7.33,5.099H1112.622z"/>
	</g>
	<path fill="#129EE6" d="M1161.386,43.322c-0.107,9.614-6.002,19.228-19.068,19.228s-19.123-9.4-19.123-19.175
		c0-9.772,6.268-19.6,19.123-19.6C1155.118,23.775,1161.491,33.603,1161.386,43.322z M1130.101,43.482
		c0.158,6.108,3.451,12.642,12.217,12.642c8.764,0,12.057-6.587,12.162-12.695c0.107-6.268-3.398-13.278-12.162-13.278
		C1133.552,30.15,1129.94,37.215,1130.101,43.482z"/>
	<path fill="#129EE6" d="M1185.874,61.7V47.997c0-3.983-2.178-7.012-6.32-7.012c-3.984,0-6.693,3.347-6.693,7.33V61.7h-6.428V35.461
		h5.791l0.424,3.559c2.656-2.602,5.312-3.93,8.605-3.93c6.162,0,11.102,4.621,11.102,12.854V61.7H1185.874z"/>
	<path fill="#129EE6" d="M1203.989,50.918c0.424,3.24,3.24,5.577,7.809,5.577c2.389,0,5.523-0.902,7.01-2.443l4.145,4.09
		c-2.764,2.869-7.277,4.25-11.262,4.25c-9.029,0-14.395-5.578-14.395-13.97c0-7.967,5.418-13.704,13.916-13.704
		c8.766,0,14.236,5.418,13.227,16.2H1203.989z M1218.224,45.554c-0.424-3.399-3.08-5.099-6.799-5.099
		c-3.506,0-6.373,1.699-7.33,5.099H1218.224z"/>
</g>
</svg>
